<?xml version="1.0" encoding="utf-8"?>
<!-- Generator: Adobe Illustrator 21.1.0, SVG Export Plug-In . SVG Version: 6.00 Build 0)  -->
<svg version="1.1" id="Layer_1" xmlns="http://www.w3.org/2000/svg" xmlns:xlink="http://www.w3.org/1999/xlink" x="0px" y="0px"
	 viewBox="0 0 475.789 145.596" enable-background="new 0 0 475.789 145.596" xml:space="preserve">
<g>
	<path d="M225.376,73.197v-0.398c0-40.8,31.399-72.799,73.799-72.799c28.6,0,48,13,60.399,30.199l-29.199,22.236
		c-8-10-18.2-17.037-31.6-17.037c-19.6,0-33.399,16.6-33.399,37v0.4c0,21,13.8,37.398,33.399,37.398c14.6,0,23.199-6.801,31.6-17
		l29.199,20.799c-13.2,18.201-31,31.6-61.999,31.6C257.577,145.596,225.376,114.996,225.376,73.197z"/>
	<path d="M363.575,2.799h112.215v33h-73.815v21.199h53.577v30.6h-53.577v22.199h73.815v33H363.575V2.799z"/>
	<path d="M0,2.799h59.999c35.399,0,57.199,18.2,57.199,49.199v0.4c0,33-24.399,50.398-59.199,50.398h-19.2v40H0V2.799z
		 M57.199,72.398c13.8,0,21.199-7.199,21.199-18.199v-0.4c0-12-7.399-18.4-21.399-18.4h-18.2v37H57.199z"/>
	<path d="M147.237,2.799h37.398l59.601,139.998h-41.601l-10.199-25h-54l-10,25H87.637L147.237,2.799z M181.237,87.598l-15.6-39.799
		l-15.801,39.799H181.237z"/>
</g>
</svg>
